<svg width="200" height="240" viewBox="0 0 200 240" fill="none" xmlns="http://www.w3.org/2000/svg">
<path d="M74.4928 209.193C81.8894 201.908 86.6257 195.984 91.4943 186.221C92.657 183.889 95.4084 182.786 97.8177 183.778C100.172 184.747 101.384 187.383 100.496 189.769C95.8514 202.245 90.9439 208.878 82.4067 217.219C80.7273 218.86 78.1196 219.056 76.1819 217.73L75.1336 217.012C72.497 215.209 72.2167 211.435 74.4928 209.193Z" fill="#FFE6C4" stroke="#252526" stroke-width="2"/>
<path d="M90.5221 224.057C86.7467 214.386 84.8434 207.045 84.3879 196.144C84.2792 193.541 82.2184 191.41 79.614 191.331C77.0692 191.254 74.8862 193.165 74.7223 195.705C73.8652 208.99 75.635 217.049 80.02 228.151C80.8826 230.334 83.183 231.578 85.4932 231.159L86.7431 230.933C89.8865 230.363 91.6839 227.033 90.5221 224.057Z" fill="#FFE6C4" stroke="#252526" stroke-width="2"/>
<path d="M115.03 203.585C123.228 175.226 126.164 156.821 118.728 122.506C118.177 119.962 115.731 118.294 113.156 118.677L85.4279 122.796C83.6185 123.065 82.101 124.306 81.4591 126.019C70.8956 154.211 62.4941 167.923 49.1971 187.668C47.206 190.624 48.8423 194.662 52.3338 195.379L109.24 207.076C111.783 207.598 114.309 206.079 115.03 203.585Z" fill="#2E2538" stroke="#252526" stroke-width="2"/>
<path fill-rule="evenodd" clip-rule="evenodd" d="M54.1103 17.2478C52.9249 17.0405 51.4318 16.692 50.5617 17.5553C49.5929 18.5165 50.1085 20.2541 49.7324 21.5912C49.4981 22.4239 49.1536 23.1889 48.7614 23.9545C48.2307 24.9903 47.0836 25.742 47.0059 26.9131C46.9301 28.0554 47.601 29.1698 48.3604 29.9982C49.1042 30.8095 50.3129 30.8739 51.2086 31.4972C52.266 32.2331 52.8385 33.9727 54.1103 33.9997C55.372 34.0264 55.9194 32.1624 57.0695 31.6214C58.2581 31.0622 60.304 32.0555 60.8573 30.8259C61.4914 29.4165 59.353 28.0341 59.3837 26.4781C59.4059 25.3496 60.9937 24.7171 61 23.5884C61.006 22.5011 60.0799 21.6605 59.4151 20.8218C58.7573 19.9919 57.9953 19.2878 57.1277 18.7033C56.1852 18.0683 55.2174 17.4414 54.1103 17.2478Z" fill="#FF9700" stroke="#252526" stroke-width="1.5"/>
<path d="M57.3786 96.5019C57.3786 119.282 75.5684 137.724 97.9753 137.724C120.382 137.724 138.572 119.282 138.572 96.5019C138.572 73.7214 120.382 55.2797 97.9753 55.2797C75.5684 55.2797 57.3786 73.7214 57.3786 96.5019Z" fill="#FFE6C4" stroke="#252526" stroke-width="2"/>
<path d="M56.8829 32.0369L55.5854 75.7965C55.5283 77.7202 57.5751 78.9842 59.2695 78.0718L97.8152 57.3156C99.5097 56.4032 99.581 53.9986 97.9435 52.9874L60.6954 29.984C59.058 28.9727 56.9399 30.1133 56.8829 32.0369Z" fill="#2E2538" stroke="#252526"/>
<rect x="133.403" y="44.9088" width="4.07235" height="59.2304" transform="rotate(-13.7903 133.403 44.9088)" fill="#F5F5F5" stroke="#252526" stroke-width="1.5"/>
<path d="M128.757 26.4579L128.598 32.9358C128.569 34.1268 127.776 35.1635 126.634 35.5037L120.424 37.354C119.263 37.6997 119.223 39.3285 120.365 39.7309L126.477 41.8842C127.601 42.2801 128.342 43.3545 128.312 44.5455L128.153 51.0235C128.123 52.234 129.66 52.7754 130.396 51.8136L134.332 46.6665C135.056 45.7201 136.307 45.3475 137.43 45.7434L143.542 47.8967C144.684 48.2991 145.674 47.0049 144.986 46.0081L141.308 40.6737C140.631 39.6929 140.663 38.3882 141.387 37.4418L145.324 32.2947C146.059 31.3329 145.134 29.9916 143.974 30.3374L137.764 32.1877C136.622 32.5278 135.391 32.0941 134.715 31.1134L131.036 25.779C130.348 24.7821 128.787 25.2473 128.757 26.4579Z" fill="#FF9700" stroke="#252526" stroke-width="1.5"/>
<circle cx="93.5" cy="91.4999" r="2.5" fill="#252526"/>
<circle cx="114.5" cy="83.4999" r="2.5" fill="#252526"/>
<path d="M104.741 95.7428L111.323 101.371L112.906 92.8564L104.741 95.7428Z" fill="#F07145" stroke="#252526"/>
<path d="M152.587 91.7795L113.483 143.718L104.4 136.88L143.505 84.9414C145.393 82.4334 148.957 81.9311 151.465 83.8193C153.973 85.7076 154.476 89.2715 152.587 91.7795Z" fill="#FFE6C4" stroke="#252526" stroke-width="2"/>
<path d="M62.6663 188.134C91.4687 182.868 94.6693 165.88 105.587 140.26C106.197 138.827 105.025 137.246 103.472 137.363C95.5253 137.963 87.8245 136.992 79.2716 133.299C78.1248 132.803 76.8374 132.692 75.6691 133.134C65.4207 137.014 53.2777 146.63 26.351 147.132C21.5114 147.223 18.8734 153.47 22.4977 156.678L41.5 173.5L58.7875 187.148C59.8794 188.01 61.2977 188.384 62.6663 188.134Z" fill="#F07145" stroke="#252526" stroke-width="2"/>
</svg>
