<svg width="200" height="240" viewBox="0 0 200 240" fill="none" xmlns="http://www.w3.org/2000/svg">
<path d="M43.5457 216.19C50.9509 208.906 55.6931 202.983 60.5678 193.22C61.7324 190.888 64.4848 189.785 66.8958 190.776C69.255 191.746 70.4699 194.387 69.5787 196.777C64.9275 209.251 60.0124 215.883 51.4617 224.225C49.783 225.863 47.1784 226.058 45.2419 224.735L44.1867 224.014C41.5468 222.21 41.2663 218.432 43.5457 216.19Z" fill="#FFE6C4" stroke="#252526" stroke-width="2"/>
<path d="M61.7667 205.494C71.5848 202.082 78.4119 198.76 87.0067 192.025C89.0596 190.416 92.0208 190.598 93.7742 192.526C95.489 194.412 95.454 197.315 93.6242 199.092C84.0682 208.373 76.7812 212.262 65.4756 216.14C63.255 216.902 60.8164 215.963 59.634 213.937L58.9899 212.834C57.3792 210.075 58.7459 206.544 61.7667 205.494Z" fill="#FFE6C4" stroke="#252526" stroke-width="2"/>
<path d="M107.166 204.588C115.377 176.226 118.318 157.822 110.87 123.503C110.318 120.96 107.873 119.294 105.299 119.676L77.5199 123.797C75.7109 124.066 74.1934 125.305 73.5509 127.017C62.9733 155.209 54.5605 168.922 41.2464 188.664C39.2523 191.621 40.8891 195.662 44.3827 196.379L101.378 208.078C103.92 208.599 106.445 207.081 107.166 204.588Z" fill="#2E2538" stroke="#252526" stroke-width="2"/>
<rect x="0.439333" y="0.964869" width="4.07906" height="59.2406" transform="matrix(0.936715 0.350093 -0.350937 0.936399 164.869 66.138)" fill="#F5F5F5" stroke="#252526" stroke-width="1.5"/>
<path fill-rule="evenodd" clip-rule="evenodd" d="M46.164 18.2479C44.977 18.0406 43.4819 17.6921 42.6106 18.5553C41.6404 19.5165 42.1568 21.2542 41.7801 22.5913C41.5455 23.4239 41.2006 24.1889 40.8078 24.9545C40.2764 25.9903 39.1277 26.7421 39.0499 27.9132C38.974 29.0555 39.6458 30.1699 40.4063 30.9982C41.1511 31.8095 42.3615 31.874 43.2583 32.4972C44.3173 33.2332 44.8905 34.9728 46.164 34.9997C47.4275 35.0265 47.9757 33.1624 49.1273 32.6215C50.3176 32.0623 52.3663 33.0555 52.9203 31.826C53.5554 30.4166 51.414 29.0342 51.4447 27.4782C51.467 26.3497 53.0569 25.7172 53.0632 24.5885C53.0693 23.5011 52.1419 22.6605 51.4762 21.8218C50.8175 20.992 50.0544 20.2879 49.1856 19.7033C48.2419 19.0684 47.2727 18.4414 46.164 18.2479Z" fill="#FF9700" stroke="#252526" stroke-width="1.5"/>
<path d="M49.4355 97.502C49.4355 120.281 67.6496 138.724 90.0893 138.724C112.529 138.724 130.743 120.281 130.743 97.502C130.743 74.7228 112.529 56.2798 90.0893 56.2798C67.6496 56.2798 49.4355 74.7228 49.4355 97.502Z" fill="#FFE6C4" stroke="#252526" stroke-width="2"/>
<path d="M48.9402 33.0307L47.6407 76.7975C47.5836 78.7205 49.6321 79.9852 51.3274 79.0736L89.9323 58.3141C91.6276 57.4025 91.6978 54.9985 90.0586 53.9875L52.7532 30.9803C51.115 29.97 48.9973 31.1088 48.9402 33.0307Z" fill="#2E2538" stroke="#252526"/>
<path d="M171.519 49.3298L167.725 54.5983C167.029 55.5651 165.79 55.9745 164.655 55.6124L158.47 53.6391C157.316 53.2709 156.364 54.5944 157.081 55.57L160.921 60.7933C161.627 61.7535 161.633 63.0594 160.936 64.0272L157.146 69.2903C156.439 70.2731 157.402 71.5861 158.552 71.2066L164.723 69.1707C165.854 68.7976 167.096 69.1939 167.801 70.1526L171.647 75.3844C172.364 76.3596 173.911 75.8475 173.905 74.6371L173.873 68.1546C173.867 66.9627 174.63 65.9022 175.763 65.5285L181.924 63.4959C183.074 63.1163 183.067 61.4868 181.913 61.1187L175.728 59.1453C174.594 58.7833 173.821 57.7322 173.816 56.5414L173.784 50.0524C173.778 48.8422 172.226 48.3473 171.519 49.3298Z" fill="#FF9700" stroke="#252526" stroke-width="1.5"/>
<ellipse cx="85.6077" cy="92.5" rx="2.50343" ry="2.5" fill="#252526"/>
<ellipse cx="106.637" cy="84.5" rx="2.50343" ry="2.5" fill="#252526"/>
<path d="M96.8636 96.743L103.456 102.372L105.041 93.8562L96.8636 96.743Z" fill="#F07145" stroke="#252526"/>
<path d="M155.827 111.989L101.884 148.396L95.5089 138.976L149.452 102.569C152.055 100.812 155.593 101.496 157.353 104.098C159.114 106.699 158.431 110.232 155.827 111.989Z" fill="#FFE6C4" stroke="#252526" stroke-width="2"/>
<path d="M45.8804 181.945C74.31 176.887 86.1755 166.026 97.661 141.24C98.316 139.827 97.1507 138.246 95.5971 138.363C87.6367 138.964 79.923 137.993 71.3554 134.297C70.2098 133.802 68.9264 133.715 67.7246 134.05C57.515 136.898 47.7771 136.728 20.0014 134.213C15.4358 133.8 12.7289 139.226 15.833 142.599L23.6747 151.121C23.9065 151.373 24.1118 151.648 24.2874 151.942L40.8192 179.606C41.8645 181.355 43.8742 182.302 45.8804 181.945Z" fill="#F07145" stroke="#252526" stroke-width="2"/>
</svg>
