<svg width="325" height="329" viewBox="0 0 325 329" fill="none" xmlns="http://www.w3.org/2000/svg">
<path d="M290.118 40.0865L196.423 61.9714C193.31 62.6985 190.035 62.0354 187.45 60.1546L109.646 3.54833C103.977 -0.576497 95.9766 3.07856 95.3835 10.0646L87.244 105.936C86.9735 109.122 85.3307 112.032 82.7431 113.909L4.86481 170.412C-0.810089 174.53 0.193914 183.268 6.65476 185.991L95.319 223.358C98.2649 224.599 100.525 227.061 101.511 230.102L131.183 321.629C133.345 328.299 141.966 330.044 146.552 324.741L209.489 251.963C211.58 249.545 214.619 248.156 217.816 248.159L314.033 248.222C321.044 248.227 325.368 240.568 321.741 234.567L271.974 152.221C270.321 149.485 269.939 146.165 270.929 143.125L300.723 51.6374C302.894 44.9708 296.945 38.4918 290.118 40.0865Z" fill="#FF9700" stroke="black" stroke-width="2"/>
</svg>
