<svg width="351" height="356" viewBox="0 0 351 356" fill="none" xmlns="http://www.w3.org/2000/svg">
<path d="M325.581 54.2123C327.752 47.5457 321.804 41.0666 314.976 42.6614L212.245 66.657C209.132 67.3841 205.857 66.721 203.272 64.8402L117.964 2.77435C112.295 -1.35046 104.295 2.3046 103.702 9.29063L94.777 114.409C94.5065 117.594 92.8637 120.505 90.2761 122.382L4.88659 184.335C-0.788314 188.452 0.215711 197.19 6.67658 199.913L103.892 240.884C106.838 242.126 109.098 244.587 110.084 247.628L142.618 347.983C144.78 354.653 153.401 356.398 157.987 351.095L226.994 271.298C229.085 268.88 232.125 267.491 235.321 267.493L340.818 267.563C347.829 267.568 352.153 259.908 348.527 253.908L293.96 163.62C292.306 160.884 291.925 157.564 292.915 154.524L325.581 54.2123Z" fill="#ECAE9E" stroke="#FFE6C4" stroke-width="2"/>
</svg>
